<svg width="185" height="52" viewBox="0 0 185 52" fill="none" xmlns="http://www.w3.org/2000/svg">
<path d="M75.2288 33.2375V26.0136H78.0409V33.2375H88.2876V35.765H66.8892V33.2375H75.2288ZM83.6709 29.1445V17.987H68.6083V15.4083H86.5457V29.1445H83.6709Z" fill="#575756"/>
<path d="M95.3118 25.0343V22.8712H97.9987V25.0343H104.409V22.8712H107.067V25.0343H111.889V27.4822H90.4845V25.0343H95.3118ZM106.697 33.4537C106.7 34.1353 106.548 34.8087 106.253 35.4233C105.964 36.0314 105.555 36.5754 105.052 37.0229C104.012 38.0141 102.629 38.5648 101.192 38.5599C100.46 38.5635 99.7347 38.4223 99.0575 38.1444C98.4021 37.8776 97.8018 37.4916 97.2871 37.0059C96.7958 36.5541 96.3974 36.0107 96.1145 35.4062C95.822 34.7908 95.6702 34.118 95.6702 33.4366C95.6702 32.7552 95.822 32.0824 96.1145 31.467C96.4013 30.8564 96.7989 30.3044 97.2871 29.8389C97.8014 29.3526 98.4018 28.9665 99.0575 28.7004C99.737 28.4315 100.461 28.2943 101.192 28.2962C101.921 28.2934 102.644 28.4306 103.321 28.7004C103.958 28.9681 104.537 29.3545 105.029 29.8389C105.529 30.3003 105.937 30.8528 106.23 31.467C106.54 32.0896 106.702 32.7753 106.703 33.4708L106.697 33.4537ZM106.646 18.0837C106.65 18.76 106.498 19.4282 106.202 20.0362C105.907 20.646 105.499 21.1946 105.001 21.6529C103.969 22.6216 102.608 23.1628 101.192 23.1672C100.463 23.1694 99.7416 23.0262 99.0689 22.7459C98.4353 22.4935 97.8557 22.1226 97.3611 21.6529C96.8658 21.1929 96.4604 20.6447 96.1657 20.0362C95.8735 19.4288 95.7218 18.7634 95.7218 18.0894C95.7218 17.4153 95.8735 16.7499 96.1657 16.1425C96.4573 15.5289 96.863 14.9764 97.3611 14.5144C98.3979 13.5389 99.7687 12.9971 101.192 13.0002C101.917 12.9938 102.636 13.1352 103.304 13.4158C103.938 13.6711 104.517 14.0439 105.012 14.5144C105.514 14.9747 105.921 15.5275 106.213 16.1425C106.51 16.7582 106.66 17.4344 106.651 18.1178L106.646 18.0837ZM103.879 33.3854C103.884 33.0444 103.82 32.7059 103.69 32.3907C103.56 32.0755 103.366 31.7903 103.122 31.5524C102.869 31.3035 102.569 31.1073 102.24 30.9754C101.911 30.8435 101.558 30.7784 101.204 30.7839C100.851 30.7768 100.501 30.8412 100.174 30.9733C99.8474 31.1054 99.5508 31.3024 99.3023 31.5524C99.0494 31.7924 98.849 32.0822 98.7138 32.4036C98.5786 32.725 98.5115 33.0709 98.5167 33.4195C98.5123 33.7697 98.5797 34.1171 98.7149 34.4402C98.85 34.7633 99.0499 35.0553 99.3023 35.2981C99.5495 35.5506 99.8456 35.7501 100.173 35.8842C100.499 36.0183 100.85 36.0842 101.204 36.078C101.561 36.0807 101.914 36.0115 102.244 35.8746C102.574 35.7377 102.872 35.5358 103.122 35.281C103.369 35.0389 103.564 34.7489 103.695 34.4288C103.826 34.1088 103.891 33.7654 103.885 33.4195L103.879 33.3854ZM103.828 18.0837C103.828 17.7422 103.76 17.4041 103.626 17.09C103.491 16.7759 103.295 16.4923 103.048 16.2564C102.804 16.0058 102.512 15.8075 102.189 15.6734C101.866 15.5393 101.519 15.4723 101.169 15.4765C100.475 15.4765 99.8089 15.7524 99.3179 16.2435C98.8268 16.7345 98.5509 17.4006 98.5509 18.0951C98.5509 18.7896 98.8268 19.4556 99.3179 19.9467C99.8089 20.4378 100.475 20.7137 101.169 20.7137C101.869 20.7122 102.54 20.4356 103.038 19.9435C103.535 19.4514 103.819 18.7833 103.828 18.0837V18.0837Z" fill="#575756"/>
<path d="M135.622 33.2087V35.7647H114.246V33.2087H123.474V27.6072H115.971V15.2259H118.863V25.0342H134.233V27.5902H126.372V33.1917L135.622 33.2087Z" fill="#575756"/>
<path d="M147.553 24.5849V22.416H140.051V14.4919H158.011V16.9454H142.914V19.9967H158.062V22.416H150.451V24.5849H159.701V27.0327H138.326V24.5849H147.553ZM154.726 33.0782C154.729 33.7941 154.573 34.5017 154.271 35.1503C153.98 35.7934 153.566 36.3735 153.052 36.8581C152.511 37.3391 151.891 37.7241 151.219 37.9966C149.807 38.5737 148.225 38.5737 146.813 37.9966C146.14 37.7242 145.518 37.3392 144.975 36.8581C144.463 36.3733 144.051 35.7932 143.762 35.1503C143.462 34.5008 143.307 33.7938 143.307 33.0782C143.307 32.3627 143.462 31.6557 143.762 31.0061C144.054 30.3732 144.466 29.8029 144.975 29.3268C145.517 28.8441 146.139 28.4589 146.813 28.1883C148.227 27.6191 149.806 27.6191 151.219 28.1883C151.892 28.4589 152.512 28.8441 153.052 29.3268C153.563 29.8025 153.977 30.3728 154.271 31.0061C154.572 31.6552 154.728 32.3625 154.726 33.0782V33.0782ZM151.937 33.027C151.941 32.6456 151.867 32.2673 151.72 31.9157C151.572 31.5641 151.353 31.2467 151.077 30.9834C150.529 30.4397 149.788 30.1346 149.016 30.1346C148.244 30.1346 147.504 30.4397 146.956 30.9834C146.681 31.2433 146.464 31.5568 146.316 31.9045C146.168 32.2521 146.093 32.6265 146.096 33.0042C146.085 33.3882 146.156 33.77 146.304 34.1244C146.453 34.4787 146.675 34.7974 146.956 35.0593C147.507 35.5962 148.247 35.8966 149.016 35.8966C149.786 35.8966 150.525 35.5962 151.077 35.0593C151.357 34.7965 151.578 34.4777 151.726 34.1235C151.874 33.7694 151.946 33.388 151.937 33.0042V33.027Z" fill="#575756"/>
<path d="M162.673 28.9167H184.049V31.4727H174.798V37.467H171.901V31.4727H162.673V28.9167ZM167.227 17.5315H179.46V14.6055H182.307V25.7915H164.392V14.6055H167.238L167.227 17.5315ZM179.449 20.0306H167.238V23.2412H179.46L179.449 20.0306Z" fill="#575756"/>
<path d="M40.2461 24.9651C35.7206 21.8903 29.9231 23.1465 26.8798 27.7719C25.8999 29.3078 24.4952 30.5261 22.8361 31.2789C21.1771 32.0318 19.3352 32.2868 17.5341 32.0129C15.7329 31.7391 14.05 30.9482 12.6897 29.7363C11.3294 28.5244 10.3502 26.9436 9.87108 25.1859V25.1859C9.87343 25.1544 9.87343 25.1228 9.87108 25.0913C9.86298 25.0504 9.85245 25.01 9.83955 24.9704C9.48672 23.7572 9.32534 22.4963 9.36124 21.2333C9.36124 12.8236 18.0075 3.41514 30.4697 3.41514C43.2263 3.41514 50.527 13.1284 52.4087 18.5264L52.3141 18.2373C50.2661 12.2003 46.1383 7.08811 40.6683 3.81415C35.1983 0.540185 28.7424 -0.682241 22.4541 0.365283C16.1658 1.41281 10.4548 4.66203 6.34146 9.53242C2.22814 14.4028 -0.0194972 20.577 0.000127431 26.952C0.000127431 40.2131 9.56623 51.5663 22.8326 51.5663C33.4132 51.5663 40.5247 45.6321 43.7887 37.4589C45.5758 32.986 44.309 27.7299 40.2461 24.9651Z" fill="#003763"/>
<path d="M52.54 17.6316C50.9632 12.3755 43.6046 2 30.4381 2C17.9759 2 9.32961 11.3874 9.32961 19.8182C9.29371 21.0812 9.45509 22.342 9.80792 23.5553C9.64928 22.9279 9.56634 22.2839 9.56088 21.6368C9.56088 12.8591 18.3491 6.76728 27.3896 6.76728C33.2644 6.76728 38.8987 9.10069 43.0533 13.2543C47.2079 17.4079 49.5426 23.0417 49.544 28.9165C49.5478 33.4619 48.2823 37.918 45.8902 41.783C43.498 45.648 40.0742 48.7683 36.0043 50.7924V50.7924C41.1949 48.911 45.68 45.4763 48.8493 40.9555C52.0187 36.4347 53.7184 31.0474 53.7174 25.5263C53.7261 22.8504 53.3291 20.1886 52.54 17.6316V17.6316Z" fill="#E4022D"/>
</svg>
