<svg width="243" height="53" viewBox="0 0 243 53" fill="none" xmlns="http://www.w3.org/2000/svg">
<path d="M40.44 24.89C35.8927 21.8137 30.0636 23.0683 27.0092 27.6934C26.0251 29.2298 24.6138 30.4487 22.9468 31.2021C21.2798 31.9554 19.4288 32.2109 17.6187 31.9373C15.8086 31.6638 14.1173 30.8731 12.7501 29.6612C11.383 28.4493 10.3989 26.8684 9.91745 25.1105V25.0107L9.85942 24.89C9.50066 23.6773 9.33686 22.4158 9.3741 21.1522C9.3741 12.7211 18.0624 3.33979 30.5858 3.33979C43.4047 3.33979 50.7372 13.0466 52.631 18.4486C52.5941 18.3541 52.5677 18.2596 52.5308 18.1598C50.46 12.1422 46.3108 7.05108 40.8216 3.79262C35.3324 0.534163 28.8594 -0.680195 22.5548 0.365701C16.2503 1.4116 10.5232 4.64988 6.39291 9.50416C2.26267 14.3584 -0.00270687 20.5137 2.42734e-06 26.8744C2.42734e-06 40.1353 9.61148 51.4905 22.942 51.4905C33.5769 51.4905 40.7196 45.553 44.0008 37.3792C45.7996 32.9011 44.523 27.6461 40.44 24.89Z" fill="#003763"/>
<path d="M52.7949 18.9615C51.2124 13.7118 43.827 3.33301 30.5862 3.33301C18.0628 3.33301 9.37446 12.7143 9.37446 21.1454C9.33667 22.4108 9.50047 23.6741 9.85978 24.8885C9.69767 24.2624 9.61439 23.6188 9.61185 22.9723C9.61185 14.1947 18.4426 8.11028 27.5477 8.11028C33.4504 8.11028 39.1113 10.4438 43.2852 14.5975C47.459 18.7512 49.8039 24.3848 49.8039 30.259C49.8069 34.8041 48.535 39.2598 46.1314 43.1246C43.7278 46.9894 40.288 50.1098 36.199 52.1347C41.4151 50.2528 45.9223 46.818 49.1078 42.2973C52.2933 37.7765 54.0025 32.3891 54.003 26.8676C54.0042 24.1866 53.5968 21.521 52.7949 18.9615Z" fill="#E4022D"/>
<path d="M74.4386 17.6414L81.9246 29.534L79.55 31.0523L74.4564 22.7812L69.4518 31.2886L67 29.7408L74.4386 17.6414ZM71.5296 33.38V38.8035H87.8612V41.4561H68.5079V33.38H71.5296ZM87.2319 33.2441H84.2636V17.7772H87.2319V23.3307H90.7167V26.2846H87.2319V33.2441Z" fill="#575756"/>
<path d="M105.658 23.8209C105.664 24.5919 105.498 25.3546 105.172 26.0541C104.853 26.7389 104.408 27.3582 103.86 27.8796C103.29 28.4121 102.625 28.8348 101.901 29.1262C100.379 29.7454 98.6733 29.7454 97.1514 29.1262C96.4273 28.8333 95.7632 28.4108 95.1923 27.8796C94.6458 27.3579 94.2028 26.7387 93.8862 26.0541C93.5583 25.355 93.39 24.5924 93.3935 23.8209C93.3905 23.0438 93.5587 22.2754 93.8862 21.57C94.1985 20.8864 94.6422 20.2702 95.1923 19.7562C96.0692 18.9148 97.1739 18.3463 98.3709 18.1207C99.5678 17.8951 100.805 18.022 101.93 18.486C102.66 18.7793 103.325 19.2107 103.889 19.7562C104.441 20.2699 104.887 20.886 105.201 21.57C105.517 22.2782 105.673 23.0464 105.658 23.8209ZM95.1804 30.9458H98.1487V33.309H111.292V30.9458H114.261V41.4501H95.1804V30.9458ZM102.773 23.8209C102.77 22.9704 102.431 22.1553 101.829 21.5517C101.227 20.9481 100.41 20.6045 99.5557 20.5952C99.1312 20.5886 98.7099 20.6697 98.3186 20.8335C97.9272 20.9972 97.5742 21.2399 97.282 21.5463C96.9795 21.8429 96.7405 22.1973 96.5793 22.5882C96.4181 22.9791 96.338 23.3984 96.344 23.8209C96.3424 24.2411 96.4244 24.6574 96.5853 25.0459C96.7461 25.4343 96.9826 25.7873 97.2812 26.0844C97.5797 26.3815 97.9344 26.6169 98.3248 26.777C98.7151 26.937 99.1335 27.0186 99.5557 27.0171C99.9802 27.023 100.402 26.9434 100.794 26.7829C101.187 26.6225 101.543 26.3846 101.841 26.0836C102.145 25.7905 102.384 25.4383 102.544 25.0489C102.705 24.6596 102.783 24.2416 102.773 23.8209ZM111.292 35.684H98.1487V39.016H111.292V35.684ZM111.239 17.7771H114.261V29.2621H111.239V24.713H107.131V22.084H111.239V17.7771Z" fill="#575756"/>
<path d="M140.713 31.59H118.398V29.1264H128.051V27.5785H120.191V18.0491H138.891V20.489H123.135V21.6706H138.891V23.9215H123.135V25.1386H138.944V27.5017H131.019V29.0732H140.707L140.713 31.59ZM135.519 37.4979C135.523 38.2397 135.359 38.973 135.038 39.6425C134.734 40.2962 134.305 40.8842 133.773 41.3735C133.224 41.875 132.588 42.2751 131.898 42.5551C131.174 42.8583 130.397 43.0111 129.612 43.0041C128.822 43.0105 128.038 42.8578 127.309 42.5551C126.613 42.2781 125.973 41.8777 125.421 41.3735C124.89 40.8842 124.46 40.2962 124.156 39.6425C123.835 38.973 123.671 38.2397 123.675 37.4979C123.67 36.7636 123.835 36.0379 124.156 35.377C124.462 34.7277 124.891 34.1438 125.421 33.6578C125.973 33.1535 126.613 32.7532 127.309 32.4762C128.038 32.1734 128.822 32.0207 129.612 32.0272C130.397 32.0202 131.174 32.173 131.898 32.4762C132.588 32.7562 133.224 33.1563 133.773 33.6578C134.303 34.1438 134.732 34.7277 135.038 35.377C135.363 36.0451 135.528 36.7793 135.519 37.5215V37.4979ZM132.604 37.4979C132.609 37.1076 132.535 36.7204 132.385 36.3598C132.235 35.9992 132.012 35.6728 131.731 35.4006C131.459 35.1153 131.13 34.8896 130.765 34.7381C130.4 34.5865 130.007 34.5123 129.612 34.5203C129.214 34.5128 128.819 34.587 128.451 34.7385C128.083 34.89 127.751 35.1154 127.475 35.4006C127.19 35.6707 126.965 35.9964 126.812 36.3573C126.66 36.7182 126.585 37.1065 126.59 37.4979C126.582 37.8863 126.654 38.2722 126.804 38.6312C126.953 38.9902 127.175 39.3144 127.457 39.5834C127.735 39.8648 128.068 40.0869 128.436 40.2362C128.803 40.3855 129.197 40.4589 129.594 40.4519C130.381 40.4519 131.136 40.1406 131.693 39.5867C132.25 39.0327 132.562 38.2813 132.562 37.4979H132.604Z" fill="#575756"/>
<path d="M155.3 29.7228L150.236 22.3852L145.202 29.9414L142.78 28.3462L150.236 17.5111L157.734 28.0686L155.3 29.7228ZM161.991 36.8123C161.995 37.6016 161.825 38.3822 161.492 39.0986C161.164 39.7987 160.716 40.4365 160.168 40.9833C159.576 41.5296 158.891 41.9658 158.144 42.2712C157.369 42.5858 156.54 42.7463 155.704 42.7438C154.866 42.7453 154.035 42.5848 153.258 42.2712C152.498 41.9662 151.802 41.5235 151.204 40.9655C150.641 40.426 150.184 39.7869 149.856 39.0809C149.524 38.363 149.352 37.582 149.352 36.7916C149.352 36.0012 149.524 35.2202 149.856 34.5023C150.184 33.7981 150.641 33.1609 151.204 32.6236C151.796 32.0691 152.49 31.6321 153.246 31.3356C154.023 31.0221 154.854 30.8615 155.692 30.863C156.529 30.8605 157.358 31.0211 158.132 31.3356C158.881 31.6367 159.567 32.0734 160.156 32.6236C160.704 33.1681 161.153 33.804 161.48 34.5023C161.818 35.2197 161.992 36.0024 161.991 36.7945V36.8123ZM159.052 36.8123C159.057 36.3756 158.969 35.9429 158.795 35.542C158.622 35.1411 158.365 34.7809 158.043 34.4846C157.733 34.1716 157.363 33.9239 156.955 33.7564C156.547 33.5889 156.11 33.505 155.668 33.5098C155.227 33.503 154.788 33.5859 154.38 33.7536C153.972 33.9212 153.602 34.1699 153.294 34.4846C152.98 34.7884 152.731 35.1517 152.561 35.5531C152.39 35.9544 152.303 36.3855 152.303 36.8211C152.303 37.2567 152.39 37.6879 152.561 38.0892C152.731 38.4905 152.98 38.8538 153.294 39.1577C153.605 39.4678 153.975 39.7123 154.383 39.8768C154.791 40.0412 155.228 40.1222 155.668 40.1148C156.108 40.1202 156.545 40.0383 156.952 39.874C157.36 39.7096 157.731 39.4662 158.043 39.1577C158.374 38.8546 158.636 38.4839 158.81 38.071C158.984 37.6581 159.067 37.2126 159.052 36.765V36.8123ZM163.208 22.1311H166.687V25.0851H163.208V30.2072H160.21V17.8006H163.208V22.1311Z" fill="#575756"/>
<path d="M168.581 21.9245V19.2718H183.06V21.9245H176.964L183.713 37.7163L181.072 38.8506L175.877 26.5031L170.76 39.0397L168.035 37.9053L174.785 21.9245H168.581ZM188.641 41.9404H185.637V17.7771H188.635V27.153H192.114V30.1601H188.635L188.641 41.9404Z" fill="#575756"/>
<path d="M203.721 31.7139V34.9633H200.753V31.7139H194.11V29.209H210.305V31.7139H203.721ZM198.657 33.823V38.8625H215.992V41.462H195.635V33.8112L198.657 33.823ZM207.829 22.9111C207.831 23.6369 207.669 24.3538 207.354 25.0084C206.729 26.3414 205.613 27.3842 204.237 27.921C202.787 28.4962 201.17 28.4962 199.72 27.921C199.029 27.638 198.392 27.2382 197.838 26.7395C197.327 26.2236 196.909 25.624 196.603 24.9671C196.283 24.3141 196.118 23.5964 196.122 22.8698C196.118 22.147 196.283 21.4331 196.603 20.7843C196.915 20.1411 197.332 19.5541 197.838 19.0474C198.385 18.539 199.023 18.1381 199.72 17.8658C201.173 17.3065 202.784 17.3065 204.237 17.8658C204.925 18.1344 205.553 18.536 206.084 19.0474C206.606 19.5482 207.036 20.136 207.354 20.7843C207.675 21.4432 207.838 22.1672 207.829 22.8993V22.9111ZM204.974 22.9111C204.978 22.5253 204.903 22.1427 204.753 21.7869C204.603 21.4312 204.381 21.11 204.101 20.8434C203.533 20.2937 202.771 19.9862 201.979 19.9862C201.186 19.9862 200.425 20.2937 199.856 20.8434C199.581 21.1133 199.362 21.4352 199.212 21.7902C199.063 22.1452 198.986 22.5262 198.986 22.9111C198.986 23.296 199.063 23.6771 199.212 24.0321C199.362 24.3871 199.581 24.709 199.856 24.9789C200.425 25.5286 201.186 25.836 201.979 25.836C202.771 25.836 203.533 25.5286 204.101 24.9789C204.379 24.7134 204.6 24.3941 204.75 24.0406C204.901 23.687 204.976 23.3067 204.974 22.923V22.9111ZM212.353 27.0939H208.898V24.6244H212.353V17.7772H215.321V35.2232H212.353V27.0939Z" fill="#575756"/>
<path d="M219.802 33.0374H242.118V35.696H232.459V41.9229H229.437V35.696H219.802V33.0374ZM224.551 21.2216H237.321V18.1672H240.289V29.7881H221.601V18.1672H224.569L224.551 21.2216ZM237.321 23.827H224.563V27.1532H237.333L237.321 23.827Z" fill="#575756"/>
</svg>
