<svg width="242" height="53" viewBox="0 0 242 53" fill="none" xmlns="http://www.w3.org/2000/svg">
<path d="M40.222 24.8554C35.693 21.7576 29.8877 23.0339 26.8395 27.662C25.8604 29.1972 24.4565 30.415 22.7983 31.1674C21.1401 31.9197 19.2991 32.1742 17.499 31.8999C15.6989 31.6256 14.0173 30.8343 12.6585 29.6222C11.2997 28.4101 10.3222 26.8294 9.84485 25.0722C9.84203 25.0392 9.84203 25.0061 9.84485 24.9731C9.84485 24.9359 9.84485 24.8987 9.81387 24.8554C9.45825 23.6494 9.29516 22.3948 9.33062 21.138C9.33062 12.7119 18.0045 3.31937 30.4329 3.31937C43.1959 3.31937 50.4944 13.0341 52.384 18.4305C52.3469 18.3314 52.3159 18.2384 52.2849 18.1455C50.2201 12.131 46.0891 7.04373 40.6266 3.78826C35.164 0.532789 28.7239 -0.679871 22.4514 0.365913C16.179 1.4117 10.4806 4.64814 6.36975 9.49975C2.25886 14.3514 0.00183043 20.5037 0 26.8628C0 40.1214 9.56605 51.4718 22.8371 51.4718C33.4192 51.4718 40.5318 45.5426 43.7907 37.3643C45.5502 32.8725 44.2863 27.6186 40.222 24.8554Z" fill="#003863"/>
<path d="M52.5142 18.9323C50.9405 13.6661 43.5925 3.30078 30.402 3.30078C17.9488 3.30078 9.29968 12.6933 9.29968 21.1194C9.26422 22.3762 9.42731 23.6308 9.78294 24.8368C9.62262 24.2111 9.53939 23.5682 9.53511 22.9223C9.53511 14.1431 18.3267 8.05283 27.3599 8.05283C33.2349 8.05283 38.8693 10.3862 43.0241 14.5399C47.1789 18.6935 49.5138 24.3272 49.5155 30.2022C49.5219 34.7512 48.2581 39.2117 45.8664 43.0812C43.4746 46.9507 40.0499 50.0755 35.978 52.1037C42.463 49.749 47.7953 44.9926 50.8729 38.8178C53.9505 32.643 54.5381 25.5219 52.5142 18.9262V18.9323Z" fill="#E4032E"/>
<path d="M76.1509 27.3883V25.9292H66.4668V23.3209H88.9166V25.9292H79.2043V27.3883C79.486 27.4728 79.7958 27.5573 80.0775 27.67C80.7839 27.9622 81.4369 28.3696 82.0098 28.8756C82.5628 29.3904 83.0205 29.9987 83.3619 30.6727C83.6721 31.3717 83.8333 32.1276 83.8351 32.8923C83.8362 33.6465 83.6748 34.392 83.3619 35.0781C83.0353 35.7678 82.5759 36.3861 82.0098 36.8978C81.4457 37.417 80.7906 37.8276 80.0775 38.109C79.3179 38.4124 78.5067 38.5654 77.6889 38.5597C76.8726 38.5679 76.0628 38.4147 75.3059 38.109C74.585 37.8398 73.9258 37.4278 73.3679 36.8978C72.8053 36.3908 72.3561 35.7707 72.0497 35.0781C71.7147 34.3985 71.543 33.65 71.5483 32.8923C71.546 32.1241 71.7174 31.3653 72.0497 30.6727C72.3709 29.9953 72.8183 29.3854 73.3679 28.8756C73.9348 28.3586 74.5916 27.95 75.3059 27.67C75.5875 27.5573 75.8692 27.4728 76.1509 27.3883ZM87.3448 15.9127H79.0916L87.7899 20.5435L86.4153 22.797L77.6889 18.138L68.9681 22.797L67.5935 20.5435L76.2861 15.9127H68.0386V13.3326H87.3448V15.9127ZM80.8324 32.8923C80.8368 32.4832 80.757 32.0776 80.5981 31.7006C80.4391 31.3237 80.2044 30.9834 79.9085 30.7009C79.3117 30.1274 78.5165 29.8065 77.6889 29.8051C76.8704 29.8027 76.0844 30.1248 75.503 30.7009C75.1981 30.9778 74.9556 31.3164 74.7914 31.6942C74.6273 32.0721 74.5453 32.4804 74.551 32.8923C74.5443 33.2994 74.626 33.7031 74.7903 34.0756C74.9547 34.4481 75.1978 34.7805 75.503 35.05C75.7855 35.3444 76.125 35.5782 76.5008 35.737C76.8766 35.8959 77.2809 35.9765 77.6889 35.9739C78.1016 35.9746 78.5104 35.8933 78.8914 35.7347C79.2724 35.5761 79.6182 35.3433 79.9085 35.05C80.2054 34.7754 80.4411 34.4414 80.6003 34.0696C80.7595 33.6978 80.8386 33.2967 80.8324 32.8923Z" fill="#575756"/>
<path d="M101.181 32.9708V25.957H104.234V32.9708H113.947V35.6636H91.4969V32.9708H101.181ZM102.725 18.0756L94.5841 28.2611L92.2293 26.4922L102.725 13.3885L113.214 26.4922L110.854 28.2611L102.725 18.0756Z" fill="#575756"/>
<path d="M128.087 26.5205H117.513V13.5633H120.431V17.073H125.281V13.5633H128.098L128.087 26.5205ZM118.549 36.9877V28.819H121.558V34.2948H139.022V36.9877H118.549ZM125.253 19.6757H120.431V23.9122H125.281L125.253 19.6757ZM131.202 13.0506H134.064V28.543H131.202V21.0785H128.65V18.4138H131.202V13.0506ZM135.861 13.0506H138.779V28.7063H135.861V13.0506Z" fill="#575756"/>
<path d="M148.266 15.6083V13H151.517V15.6083H157.353V18.2167H151.156L157.86 33.2245L155.337 34.3512L149.889 21.9574L144.503 34.5541L141.923 33.4273L148.633 18.2505H142.177V15.6421L148.266 15.6083ZM161.06 25.4277H156.345V22.7348H161.06V13.0282H164.086V37.461H161.06V25.4277Z" fill="#575756"/>
<path d="M179.972 34.2667H176.941V17.2646H167.573V14.5492H179.966L179.972 34.2667ZM186.09 13.0338H189.121V37.4666H186.09V13.0338Z" fill="#575756"/>
<path d="M207.025 19.4223C207.034 20.2534 206.861 21.0765 206.518 21.8335C206.165 22.5711 205.68 23.2376 205.087 23.7996C204.496 24.3686 203.799 24.8165 203.036 25.1179C202.228 25.4564 201.36 25.6288 200.484 25.6249C199.617 25.6305 198.758 25.4579 197.96 25.1179C197.183 24.8277 196.475 24.3788 195.881 23.7996C195.281 23.2513 194.805 22.5809 194.484 21.8335C194.119 21.083 193.936 20.2569 193.949 19.4223C193.945 18.5796 194.127 17.7464 194.484 16.983C194.812 16.2396 195.287 15.5706 195.881 15.0169C196.48 14.4364 197.186 13.979 197.96 13.6705C198.764 13.3548 199.62 13.1942 200.484 13.1972C201.357 13.1958 202.222 13.3562 203.036 13.6705C203.796 13.9905 204.491 14.4468 205.087 15.0169C205.674 15.5845 206.158 16.2497 206.518 16.983C206.852 17.7526 207.025 18.583 207.025 19.4223ZM195.577 26.6615H198.552V28.96H211.734V26.6615H214.709V36.9878H195.555L195.577 26.6615ZM204.106 19.4223C204.106 18.468 203.732 17.5518 203.064 16.8703C202.732 16.5311 202.334 16.2621 201.896 16.0792C201.458 15.8963 200.987 15.8033 200.512 15.8056C199.554 15.81 198.637 16.1925 197.96 16.8698C197.282 17.5471 196.9 18.4645 196.895 19.4223C196.88 19.895 196.967 20.3653 197.151 20.801C197.335 21.2367 197.611 21.6274 197.96 21.9462C198.286 22.2946 198.682 22.57 199.122 22.7545C199.561 22.939 200.035 23.0283 200.512 23.0166C201.465 23.0136 202.377 22.634 203.05 21.9606C203.724 21.2871 204.103 20.3747 204.106 19.4223ZM211.734 31.45H198.552V34.4809H211.734V31.45ZM207.791 18.1266H211.695V13.0564H214.726V26.0136H211.695V20.7462H207.808L207.791 18.1266Z" fill="#575756"/>
<path d="M218.895 28.4863H241.339V31.1791H231.632V37.4606H228.596V31.1791H218.895V28.4863ZM223.694 16.5319H236.539V13.4221H239.542V25.1794H220.709V13.4221H223.711L223.694 16.5319ZM236.539 19.1684H223.694V22.5485H236.539V19.1684Z" fill="#575756"/>
</svg>
