<svg width="193" height="53" viewBox="0 0 193 53" fill="none" xmlns="http://www.w3.org/2000/svg">
<path d="M40.0858 24.88C39.0376 24.1521 37.852 23.6456 36.6015 23.3914C35.3509 23.1372 34.0617 23.1407 32.8126 23.4017C31.5634 23.6627 30.3806 24.1756 29.3364 24.9092C28.2923 25.6428 27.4086 26.5817 26.7396 27.6683C25.7641 29.2009 24.3644 30.4171 22.7106 31.1691C21.0569 31.921 19.2203 32.1763 17.4241 31.904C15.6279 31.6317 13.9495 30.8434 12.593 29.6351C11.2364 28.4267 10.2602 26.8503 9.78279 25.0974V24.9934V24.88C9.4221 23.6534 9.25936 22.3771 9.30073 21.0992C9.30073 12.6964 17.9304 3.32952 30.3503 3.32952C43.0821 3.32952 50.3601 13.0178 52.241 18.4054C52.241 18.3014 52.1748 18.2069 52.1465 18.1124C50.0903 12.1101 45.971 7.03206 40.5218 3.78219C35.0726 0.532309 28.647 -0.678581 22.3887 0.365039C16.1304 1.40866 10.4454 4.63908 6.34561 9.48132C2.24581 14.3236 -0.00279738 20.4635 2.61177e-06 26.8082C2.61177e-06 40.0409 9.53703 51.3833 22.7698 51.3833C33.3276 51.3833 40.4166 45.4758 43.6681 37.3093C44.5891 35.1436 44.7416 32.7279 44.1003 30.4635C43.459 28.1991 42.0624 26.2222 40.1425 24.8611" fill="#003863"/>
<path d="M52.3545 18.9727C50.776 13.7174 43.4507 3.37695 30.2936 3.37695C17.8737 3.37695 9.24409 12.7438 9.24409 21.1466C9.20272 22.4245 9.36544 23.7008 9.72613 24.9274C9.56895 24.3094 9.48645 23.6747 9.48039 23.037C9.48039 14.2845 18.2424 8.21636 27.2595 8.21636C30.1611 8.21512 33.0345 8.78555 35.7156 9.89509C38.3967 11.0046 40.8329 12.6315 42.8851 14.6828C44.9373 16.7341 46.5652 19.1696 47.6759 21.8502C48.7865 24.5308 49.3582 27.404 49.3582 30.3056C49.3601 34.8386 48.0981 39.2824 45.7137 43.1377C43.3294 46.993 39.9174 50.1071 35.8608 52.1302C42.3236 49.7772 47.6372 45.0342 50.706 38.879C53.7748 32.7238 54.3649 25.6257 52.3545 19.0483" fill="#E4032E"/>
<path d="M73.2723 15.0354V13H76.4785V15.0354H80.9276V17.5752H68.3188V15.0354H73.2723ZM80.4053 23.2491C80.4081 23.9353 80.2541 24.613 79.955 25.2305C79.6635 25.8355 79.2636 26.3819 78.7751 26.8427C78.2663 27.3101 77.6775 27.6823 77.0369 27.9414C75.6684 28.4818 74.1455 28.4818 72.777 27.9414C72.1375 27.6801 71.5491 27.3082 71.0387 26.8427C70.5438 26.3834 70.1377 25.8369 69.8409 25.2305C69.5505 24.6088 69.4 23.9309 69.4 23.2446C69.4 22.5584 69.5505 21.8805 69.8409 21.2588C70.1327 20.644 70.5393 20.0907 71.0387 19.6286C71.5491 19.1631 72.1375 18.7912 72.777 18.5299C74.1455 17.9895 75.6684 17.9895 77.0369 18.5299C77.6775 18.789 78.2663 19.1611 78.7751 19.6286C79.2746 20.0907 79.6812 20.644 79.973 21.2588C80.2651 21.8812 80.4129 22.5616 80.4053 23.2491ZM77.5953 23.2491C77.5953 22.5326 77.3107 21.8453 76.804 21.3386C76.2973 20.8319 75.61 20.5473 74.8934 20.5473C74.5403 20.5395 74.1894 20.6061 73.8636 20.7426C73.5378 20.8791 73.2443 21.0826 73.0021 21.3398C72.7507 21.5841 72.5516 21.8769 72.4169 22.2005C72.2822 22.524 72.2147 22.8716 72.2186 23.2221C72.2327 23.9293 72.5236 24.6027 73.0288 25.0978C73.534 25.5929 74.2131 25.8701 74.9205 25.87C75.2739 25.8757 75.6248 25.8092 75.9515 25.6745C76.2783 25.5397 76.5741 25.3396 76.8208 25.0864C77.0709 24.8455 77.2687 24.5556 77.402 24.2349C77.5352 23.9141 77.6011 23.5694 77.5953 23.2221V23.2491ZM88.2227 33.075C88.2273 33.8009 88.0672 34.5184 87.7544 35.1735C87.4442 35.8256 87.0203 36.4173 86.5025 36.9207C85.9544 37.424 85.3238 37.8292 84.6382 38.1185C83.9219 38.4157 83.1532 38.5658 82.3777 38.5598C81.5994 38.5641 80.828 38.4141 80.1081 38.1185C79.4176 37.8334 78.7833 37.4278 78.2348 36.9207C77.7114 36.4201 77.2841 35.8279 76.9739 35.1735C76.6611 34.5184 76.501 33.8009 76.5056 33.075C76.502 32.3434 76.662 31.6203 76.9739 30.9585C77.284 30.3014 77.7113 29.7062 78.2348 29.2023C78.7833 28.6952 79.4176 28.2896 80.1081 28.0045C80.828 27.7089 81.5994 27.5589 82.3777 27.5632C83.1532 27.5572 83.9219 27.7073 84.6382 28.0045C85.3238 28.2938 85.9544 28.699 86.5025 29.2023C87.0276 29.6986 87.4606 30.2841 87.7814 30.9315C88.084 31.5954 88.2348 32.3185 88.2227 33.048V33.075ZM85.2777 33.075C85.2801 32.301 84.9768 31.5573 84.4337 31.0057C83.8906 30.4542 83.1516 30.1394 82.3777 30.1299C81.9928 30.1285 81.6119 30.2079 81.2597 30.363C80.9076 30.5182 80.5919 30.7456 80.3332 31.0306C80.0618 31.2949 79.8468 31.6116 79.7013 31.9615C79.5558 32.3114 79.4827 32.6871 79.4866 33.066C79.4793 33.4427 79.5508 33.8168 79.6966 34.1642C79.8424 34.5117 80.0592 34.8248 80.3332 35.0834C80.5977 35.3572 80.9157 35.5737 81.2674 35.7194C81.6191 35.865 81.997 35.9367 82.3777 35.93C82.7609 35.936 83.1413 35.864 83.4958 35.7185C83.8504 35.573 84.1716 35.3569 84.4401 35.0834C84.7182 34.8188 84.9367 34.4981 85.0811 34.1424C85.2256 33.7868 85.2926 33.4045 85.2777 33.021V33.075ZM85.2146 26.8336H82.4317V13.5314H85.2146V18.791H87.7004V13.5044H90.5914V27.1218H87.7004V21.5199H85.2146V26.8336Z" fill="#575756"/>
<path d="M94.0858 16.7916V14.1978H108.001V16.7916H102.074L108.253 24.3299L106.136 26.0591L101.183 19.8808L96.2563 26.4734L94.0498 24.6721L100.21 16.7646L94.0858 16.7916ZM113.35 32.6067C113.353 33.3999 113.181 34.184 112.846 34.9033C112.517 35.6025 112.066 36.237 111.513 36.7766C110.92 37.3242 110.234 37.7605 109.487 38.0645C108.714 38.3751 107.888 38.5341 107.055 38.5328C105.379 38.5282 103.768 37.8839 102.552 36.7315C102.029 36.1996 101.602 35.581 101.291 34.9033C100.958 34.1801 100.786 33.3936 100.786 32.5976C100.786 31.8017 100.958 31.0152 101.291 30.292C101.615 29.567 102.079 28.9134 102.657 28.3692C103.235 27.825 103.916 27.401 104.659 27.1218C105.437 26.8056 106.269 26.6435 107.109 26.6445C107.943 26.6412 108.77 26.8034 109.541 27.1218C110.275 27.4178 110.95 27.845 111.531 28.3827C112.086 28.9271 112.538 29.568 112.864 30.274C113.202 31.0048 113.374 31.8014 113.368 32.6067H113.35ZM110.396 32.6067C110.41 32.1552 110.327 31.706 110.155 31.2885C109.983 30.871 109.724 30.4946 109.396 30.184C109.084 29.8855 108.715 29.6523 108.312 29.4976C107.908 29.343 107.478 29.2702 107.046 29.2833C106.162 29.2904 105.316 29.6447 104.691 30.2698C104.066 30.8949 103.712 31.7407 103.705 32.6247C103.7 33.0608 103.785 33.4932 103.956 33.8946C104.126 34.296 104.378 34.6579 104.695 34.9573C105.001 35.2699 105.367 35.5173 105.771 35.6845C106.175 35.8517 106.609 35.9352 107.046 35.93C107.486 35.9263 107.921 35.8343 108.324 35.6595C108.728 35.4847 109.093 35.2306 109.396 34.9123C109.72 34.6162 109.977 34.2557 110.153 33.8539C110.328 33.4521 110.417 33.018 110.414 32.5796L110.396 32.6067ZM112.405 26.3923V21.1056H107.901V18.4758H112.405V13.5043H115.404V26.3653L112.405 26.3923Z" fill="#575756"/>
<path d="M132.741 20.2771C132.746 21.1614 132.562 22.0367 132.2 22.8438C131.839 23.6368 131.332 24.3548 130.705 24.9603C130.068 25.5567 129.33 26.0355 128.526 26.3743C127.682 26.7249 126.778 26.9053 125.864 26.9053C124.951 26.9053 124.047 26.7249 123.203 26.3743C122.399 26.0355 121.661 25.5567 121.024 24.9603C120.397 24.3548 119.89 23.6368 119.529 22.8438C119.17 22.0373 118.984 21.1643 118.984 20.2816C118.984 19.3988 119.17 18.5259 119.529 17.7193C119.888 16.925 120.395 16.2067 121.024 15.6028C121.66 15.0036 122.398 14.5219 123.203 14.1798C124.909 13.4835 126.82 13.4835 128.526 14.1798C129.331 14.5219 130.068 15.0036 130.705 15.6028C131.334 16.2067 131.841 16.925 132.2 17.7193C132.562 18.5233 132.746 19.3956 132.741 20.2771ZM123.527 29.1573V34.561H139.838V37.2629H120.519V29.1573H123.527ZM129.832 20.3041C129.833 19.7766 129.722 19.2548 129.507 18.773C129.299 18.3022 129.013 17.8698 128.661 17.4941C128.292 17.153 127.869 16.876 127.409 16.6745C126.934 16.4581 126.418 16.3475 125.896 16.3503C125.368 16.3472 124.846 16.4578 124.365 16.6745C123.884 16.866 123.447 17.1532 123.08 17.5185C122.713 17.8838 122.424 18.3198 122.23 18.8C122.018 19.2824 121.911 19.8042 121.915 20.3311C121.908 20.8553 122.016 21.3748 122.23 21.8532C122.441 22.3173 122.727 22.7433 123.077 23.114C123.45 23.4874 123.886 23.7923 124.365 24.0147C124.847 24.2283 125.369 24.3358 125.896 24.3299C126.417 24.3355 126.933 24.228 127.409 24.0147C127.883 23.7928 128.313 23.4877 128.679 23.114C129.029 22.7433 129.315 22.3173 129.526 21.8532C129.744 21.3727 129.855 20.85 129.85 20.3221L129.832 20.3041ZM139.207 29.0222H136.199V13.5043H139.207V18.791H142.72V21.7721H139.234L139.207 29.0222Z" fill="#575756"/>
<path d="M144.881 16.7916V14.1978H158.796V16.7916H152.897L159.048 25.87L156.769 27.401L151.978 20.1059L147.223 27.5902L144.89 26.0321L151.014 16.7916H144.881ZM146.547 37.2809V29.1753H149.555V34.579H166.424V37.2809H146.547ZM163.2 29.0402V21.8802H158.697V19.1783H163.2V13.5043H166.208V29.0402H163.2Z" fill="#575756"/>
<path d="M170.351 28.8418H192.623V31.5437H182.996V37.749H179.961V31.5167H170.351V28.8418ZM175.142 16.9806H187.895V13.9184H190.867V25.6266H172.134V13.9184H175.142V16.9806ZM187.895 19.6014H175.142V22.9787H187.895V19.6014Z" fill="#575756"/>
</svg>
